<?xml version="1.0" encoding="UTF-8"?><svg id="a" xmlns="http://www.w3.org/2000/svg" xmlns:xlink="http://www.w3.org/1999/xlink" viewBox="0 0 659.47 637.47"><defs><style>.b{letter-spacing:0em;}.c,.d{font-size:16px;}.e{font-size:14px;}.d,.f,.g{fill:#fff;}.d,.g{font-family:MyriadPro-Regular, Myriad Pro;}.h{fill:none;stroke:#fff;stroke-miterlimit:10;}.i{letter-spacing:.01em;}.j{letter-spacing:.02em;}.k{letter-spacing:-.08em;}.f{font-family:ProductSans-Regular, Product Sans;font-size:21.4px;}.l{letter-spacing:0em;}.m{letter-spacing:.01em;}.n{letter-spacing:0em;}.o{letter-spacing:0em;}.p{letter-spacing:0em;}.q{letter-spacing:0em;}.r{letter-spacing:0em;}.s{letter-spacing:-.01em;}.t{letter-spacing:0em;}.u{letter-spacing:.02em;}.v{letter-spacing:-.09em;}.w{letter-spacing:0em;}.x{letter-spacing:0em;}.y{letter-spacing:-.02em;}.a`{letter-spacing:0em;}.aa{letter-spacing:-.08em;}.ab{letter-spacing:0em;}.ac{letter-spacing:0em;}.ad{fill:#252525;}.ae{letter-spacing:.02em;}.af{letter-spacing:0em;}.ag{letter-spacing:-.01em;}.ah{letter-spacing:0em;}.ai{letter-spacing:0em;}.aj{letter-spacing:0em;}.ak{letter-spacing:0em;}.al{letter-spacing:-.01em;}.am{letter-spacing:-.02em;}.an{letter-spacing:0em;}.ao{letter-spacing:0em;}</style></defs><rect class="ad" x="-6.89" y="3.9" width="666.37" height="637.47"/><image transform="translate(9.94 -.32) scale(.64)" xlink:href="278130164_1429114010874153_2361029605438639294_n.png"/><rect class="ad" x="5.11" width="7.66" height="414.05"/><circle class="h" cx="400.76" cy="111.04" r="11.04"/><text class="f" transform="translate(396 118.73)"><tspan x="0" y="0">1</tspan></text><text class="f" transform="translate(29.08 449.3)"><tspan x="0" y="0">1</tspan></text><circle class="h" cx="583.2" cy="111.04" r="11.04"/><text class="f" transform="translate(577.44 118.73)"><tspan x="0" y="0">2</tspan></text><text class="f" transform="translate(29.08 485.9) scale(.97 1)"><tspan x="0" y="0">2</tspan></text><circle class="h" cx="296.44" cy="180.35" r="11.04"/><text class="f" transform="translate(290.67 188.03)"><tspan x="0" y="0">4</tspan></text><text class="f" transform="translate(29.08 569.11)"><tspan x="0" y="0">4</tspan></text><circle class="h" cx="490.97" cy="185.65" r="11.04"/><text class="f" transform="translate(485.2 193.34)"><tspan x="0" y="0">5</tspan></text><text class="f" transform="translate(29.08 607.56)"><tspan x="0" y="0">5</tspan></text><circle class="h" cx="121.89" cy="181.91" r="11.04"/><text class="f" transform="translate(116.13 189.59)"><tspan x="0" y="0">3</tspan></text><text class="f" transform="translate(29.08 523.75)"><tspan x="0" y="0">3</tspan></text><circle class="h" cx="479.93" cy="259.53" r="11.04"/><text class="f" transform="translate(474.16 267.21)"><tspan x="0" y="0">7</tspan></text><text class="f" transform="translate(340.86 513.28)"><tspan x="0" y="0">7</tspan></text><path class="h" d="M133.63,214.35c.06-14.44,22.02-14.44,22.08,0-.06,14.44-22.02,14.44-22.08,0Z"/><text class="f" transform="translate(138.91 222.03)"><tspan x="0" y="0">6</tspan></text><text class="f" transform="translate(340.86 444.72)"><tspan x="0" y="0">6</tspan></text><circle class="h" cx="146.67" cy="330.18" r="11.04"/><text class="f" transform="translate(140.91 337.87)"><tspan x="0" y="0">8</tspan></text><text class="f" transform="translate(340.86 538.28)"><tspan x="0" y="0">8</tspan></text><circle class="h" cx="402.42" cy="330.18" r="11.04"/><text class="f" transform="translate(396.66 337.87)"><tspan x="0" y="0">9</tspan></text><text class="f" transform="translate(340.86 563.52)"><tspan x="0" y="0">9</tspan></text><text class="d" transform="translate(46.66 438.38)"><tspan class="ai" x="0" y="0">S</tspan><tspan x="7.84" y="0">tudying ab</tspan><tspan class="al" x="80.29" y="0">r</tspan><tspan x="85.36" y="0">oad - i</tspan><tspan class="ah" x="126.32" y="0">n</tspan><tspan x="135.13" y="0">t</tspan><tspan class="al" x="140.43" y="0">r</tspan><tspan x="145.5" y="0">odu</tspan><tspan class="x" x="172.13" y="0">c</tspan><tspan x="179.2" y="0">e users </tspan><tspan class="x" x="228.73" y="0">t</tspan><tspan class="a`" x="233.93" y="0">o a </tspan><tspan x="0" y="19.2">possibili</tspan><tspan class="ab" x="54.67" y="19.2">t</tspan><tspan x="60.11" y="19.2">y of studying in </tspan><tspan class="w" x="165.87" y="19.2">D</tspan><tspan x="176.59" y="19.2">enma</tspan><tspan class="an" x="214.54" y="19.2">r</tspan><tspan x="219.84" y="19.2">k</tspan><tspan class="b" x="0" y="45.4">G</tspan><tspan x="10.42" y="45.4">ene</tspan><tspan class="q" x="35.33" y="45.4">r</tspan><tspan x="40.48" y="45.4">al in</tspan><tspan class="ag" x="67.98" y="45.4">f</tspan><tspan x="72.45" y="45.4">o</tspan><tspan class="w" x="81.23" y="45.4">r</tspan><tspan x="86.53" y="45.4">m</tspan><tspan class="n" x="99.87" y="45.4">a</tspan><tspan x="107.52" y="45.4">tion about studying in DK</tspan><tspan class="i" x="0" y="71.6">I</tspan><tspan x="3.98" y="71.6">n mo</tspan><tspan class="al" x="38.38" y="71.6">r</tspan><tspan x="43.46" y="71.6">e detail about studying </tspan><tspan class="n" x="200.89" y="71.6">a</tspan><tspan class="af" x="208.54" y="71.6">t BAAA - </tspan><tspan x="0" y="90.8">loc</tspan><tspan class="n" x="19.73" y="90.8">a</tspan><tspan class="af" x="27.38" y="90.8">tion, benefits and st</tspan><tspan class="ah" x="158.83" y="90.8">a</tspan><tspan x="166.48" y="90.8">tistic</tspan><tspan x="0" y="117">BAAA campus </tspan><tspan class="x" x="97.31" y="117">t</tspan><tspan x="102.51" y="117">our - ca</tspan><tspan class="n" x="151.92" y="117">n</tspan><tspan class="x" x="160.73" y="117">t</tspan><tspan x="165.93" y="117">een, buildin</tspan><tspan class="am" x="244.63" y="117">g</tspan><tspan x="253.34" y="117">, </tspan><tspan x="0" y="136.2">Baseme</tspan><tspan class="n" x="52.09" y="136.2">n</tspan><tspan class="af" x="60.91" y="136.2">t</tspan><tspan class="i" x="0" y="162.4">I</tspan><tspan class="n" x="3.98" y="162.4">n</tspan><tspan class="x" x="12.8" y="162.4">t</tspan><tspan x="18" y="162.4">e</tspan><tspan class="w" x="26.02" y="162.4">r</tspan><tspan class="a`" x="31.31" y="162.4">n</tspan><tspan class="ah" x="40.19" y="162.4">a</tspan><tspan x="47.84" y="162.4">tional p</tspan><tspan class="al" x="98.53" y="162.4">r</tspan><tspan x="103.6" y="162.4">o</tspan><tspan class="x" x="112.38" y="162.4">g</tspan><tspan class="q" x="121.23" y="162.4">r</tspan><tspan x="126.38" y="162.4">ammes </tspan><tspan class="x" x="178.53" y="162.4">t</tspan><tspan x="183.73" y="162.4">o choose f</tspan><tspan class="al" x="251.93" y="162.4">r</tspan><tspan x="257" y="162.4">om </tspan><tspan class="ah" x="282.52" y="162.4">a</tspan><tspan x="290.17" y="162.4">t </tspan><tspan x="0" y="181.6">BAAA (2)</tspan></text><text class="g" transform="translate(361.7 440.29)"><tspan class="c"><tspan x="0" y="0">APPLI</tspan><tspan class="w" x="38.19" y="0">C</tspan><tspan class="k" x="47.54" y="0">A</tspan><tspan x="56.09" y="0">TION S</tspan><tspan class="aa" x="100.7" y="0">T</tspan><tspan x="107.45" y="0">A</tspan><tspan class="ab" x="117.25" y="0">R</tspan><tspan class="af" x="126" y="0">T (mo</tspan><tspan class="w" x="164.01" y="0">r</tspan><tspan x="169.31" y="0">ning 10-11)</tspan></tspan><tspan class="e"><tspan class="r" x="20" y="23.8">A</tspan><tspan x="28.53" y="23.8">pplic</tspan><tspan class="ac" x="57.31" y="23.8">a</tspan><tspan x="64" y="23.8">tion chec</tspan><tspan class="j" x="117.66" y="23.8">k</tspan><tspan class="aj" x="124.47" y="23.8">list - ne</tspan><tspan class="ao" x="166.24" y="23.8">c</tspan><tspan x="172.43" y="23.8">essa</tspan><tspan class="ae" x="197.28" y="23.8">r</tspan><tspan class="p" x="202.21" y="23.8">y</tspan><tspan x="208.66" y="23.8">docume</tspan><tspan class="ak" x="256.92" y="23.8">n</tspan><tspan x="264.63" y="23.8">ts </tspan></tspan><tspan class="e"><tspan x="20" y="40.6">(a</tspan><tspan class="m" x="30.72" y="40.6">f</tspan><tspan class="ao" x="34.96" y="40.6">t</tspan><tspan x="39.52" y="40.6">e</tspan><tspan class="l" x="46.53" y="40.6">r</tspan><tspan x="51.16" y="40.6">noon, 2-3)</tspan></tspan><tspan class="c"><tspan class="s" x="0" y="66.8">A</tspan><tspan class="x" x="9.6" y="66.8">cc</tspan><tspan x="23.74" y="66.8">omod</tspan><tspan class="n" x="63.68" y="66.8">a</tspan><tspan class="af" x="71.33" y="66.8">tion sea</tspan><tspan class="al" x="123.49" y="66.8">r</tspan><tspan x="128.56" y="66.8">ch</tspan></tspan><tspan class="c"><tspan x="0" y="93">D</tspan><tspan class="o" x="10.66" y="93">a</tspan><tspan x="18.24" y="93">y in a li</tspan><tspan class="ag" x="63.81" y="93">f</tspan><tspan x="68.27" y="93">e of a BAAA stude</tspan><tspan class="ah" x="186.56" y="93">n</tspan><tspan x="195.37" y="93">t (vlog)</tspan></tspan><tspan class="c"><tspan class="ai" x="0" y="119.2">S</tspan><tspan x="7.84" y="119.2">tude</tspan><tspan class="n" x="38.99" y="119.2">n</tspan><tspan class="af" x="47.81" y="119.2">t </tspan><tspan class="t" x="56.49" y="119.2">e</tspan><tspan x="64.46" y="119.2">xpe</tspan><tspan class="an" x="88.99" y="119.2">r</tspan><tspan x="94.29" y="119.2">ien</tspan><tspan class="x" x="114.92" y="119.2">c</tspan><tspan x="122" y="119.2">e - sho</tspan><tspan class="u" x="165.71" y="119.2">r</tspan><tspan x="171.32" y="119.2">t desc</tspan><tspan class="an" x="210.55" y="119.2">r</tspan><tspan x="215.85" y="119.2">iption or a </tspan></tspan><tspan class="c"><tspan x="0" y="138.4">quo</tspan><tspan class="x" x="26.61" y="138.4">t</tspan><tspan x="31.81" y="138.4">e </tspan><tspan class="x" x="43.22" y="138.4">g</tspan><tspan x="52.06" y="138.4">iving cu</tspan><tspan class="an" x="104.45" y="138.4">r</tspan><tspan class="al" x="109.74" y="138.4">r</tspan><tspan x="114.82" y="138.4">e</tspan><tspan class="ah" x="122.83" y="138.4">n</tspan><tspan x="131.65" y="138.4">t stude</tspan><tspan class="n" x="177.82" y="138.4">n</tspan><tspan x="186.64" y="138.4">t</tspan><tspan class="y" x="191.93" y="138.4">s</tspan><tspan class="v" x="198" y="138.4">’</tspan><tspan x="199.93" y="138.4"> </tspan><tspan class="ai" x="203.33" y="138.4">e</tspan><tspan x="211.29" y="138.4">xpe</tspan><tspan class="an" x="235.82" y="138.4">r</tspan><tspan x="241.12" y="138.4">ien</tspan><tspan class="x" x="261.76" y="138.4">c</tspan><tspan x="268.83" y="138.4">e</tspan></tspan></text></svg>