<?xml version="1.0" encoding="UTF-8"?><svg id="a" xmlns="http://www.w3.org/2000/svg" viewBox="0 0 841.89 332.71"><defs><style>.b{letter-spacing:.01em;}.c,.d{fill:none;}.c,.d,.e{stroke-linecap:round;stroke-linejoin:round;}.c,.e{stroke:#58595b;stroke-width:4px;}.f{letter-spacing:-.01em;}.g{letter-spacing:0em;}.h{letter-spacing:0em;}.i{letter-spacing:-.04em;}.j{letter-spacing:0em;}.k{letter-spacing:0em;}.l{letter-spacing:.02em;}.m{letter-spacing:0em;}.n{letter-spacing:0em;}.o{letter-spacing:0em;}.p{letter-spacing:0em;}.q{letter-spacing:0em;}.d{stroke:#939598;stroke-width:2px;}.r{letter-spacing:.02em;}.s{font-size:16px;}.s,.t{font-family:MyriadPro-Regular, Myriad Pro;}.s,.u{fill:#231f20;}.v{letter-spacing:0em;}.w{letter-spacing:0em;}.x{letter-spacing:-.02em;}.y{letter-spacing:0em;}.a`{letter-spacing:0em;}.aa{letter-spacing:0em;}.e{fill:#fff;}.ab{letter-spacing:-.01em;}.ac{letter-spacing:0em;}.ad{fill:#d7eff6;}.t{fill:#939598;font-size:12px;}.ae{letter-spacing:.01em;}.af{letter-spacing:0em;}.ag{letter-spacing:-.01em;}.ah{letter-spacing:0em;}.ai{letter-spacing:-.01em;}.aj{letter-spacing:0em;}.ak{letter-spacing:.02em;}.al{letter-spacing:-.03em;}</style></defs><rect class="ad" width="841.89" height="332.71"/><line class="d" x1="420.94" y1="103.89" x2="420.94" y2="236.57"/><g><path class="u" d="M345.09,252.39l-1.16,3.52h-2.43l4.29-12.14h3.02l4.42,12.14h-2.55l-1.25-3.52h-4.34Zm3.92-1.73l-1.11-3.06c-.26-.74-.48-1.47-.68-2.12h-.04c-.19,.66-.38,1.4-.62,2.11l-1.07,3.07h3.51Z"/><path class="u" d="M354.99,243.92c.87-.14,2.07-.25,3.77-.25s2.96,.38,3.76,1.02c.75,.59,1.26,1.54,1.26,2.72s-.37,2.11-1.08,2.76c-.95,.9-2.39,1.33-4.14,1.33-.49,0-.93-.03-1.27-.11v4.53h-2.3v-11.99Zm2.3,5.66c.33,.09,.75,.12,1.29,.12,1.79,0,2.9-.81,2.9-2.24s-1.09-2.04-2.71-2.04c-.72,0-1.23,.06-1.49,.11v4.05Z"/><path class="u" d="M365.81,243.92c.87-.14,2.07-.25,3.77-.25s2.96,.38,3.76,1.02c.75,.59,1.26,1.54,1.26,2.72s-.37,2.11-1.08,2.76c-.95,.9-2.39,1.33-4.14,1.33-.49,0-.93-.03-1.27-.11v4.53h-2.3v-11.99Zm2.3,5.66c.33,.09,.75,.12,1.29,.12,1.79,0,2.9-.81,2.9-2.24s-1.09-2.04-2.71-2.04c-.72,0-1.23,.06-1.49,.11v4.05Z"/><path class="u" d="M376.63,243.77h2.32v10.2h5.57v1.94h-7.89v-12.14Z"/><path class="u" d="M388.61,243.77v12.14h-2.32v-12.14h2.32Z"/><path class="u" d="M401.04,255.49c-.58,.29-1.91,.63-3.6,.63-4.21,0-6.81-2.47-6.81-6.15s2.89-6.42,7.12-6.42c1.68,0,2.87,.34,3.39,.61l-.52,1.81c-.66-.3-1.64-.55-2.77-.55-2.86,0-4.78,1.66-4.78,4.44,0,2.48,1.67,4.35,4.74,4.35,1.04,0,2.14-.2,2.83-.52l.41,1.79Z"/><path class="u" d="M405.87,252.39l-1.16,3.52h-2.43l4.29-12.14h3.02l4.42,12.14h-2.55l-1.25-3.52h-4.34Zm3.92-1.73l-1.11-3.06c-.26-.74-.48-1.47-.68-2.12h-.04c-.19,.66-.38,1.4-.62,2.11l-1.07,3.07h3.51Z"/><path class="u" d="M416.83,245.67h-3.89v-1.9h10.15v1.9h-3.93v10.24h-2.32v-10.24Z"/><path class="u" d="M426.82,243.77v12.14h-2.32v-12.14h2.32Z"/><path class="u" d="M441.59,249.73c0,3.9-2.75,6.39-6.5,6.39s-6.26-2.64-6.26-6.15c0-3.76,2.68-6.42,6.43-6.42s6.32,2.64,6.32,6.17Zm-10.3,.18c0,2.42,1.5,4.41,3.92,4.41s3.92-1.93,3.92-4.51c0-2.32-1.39-4.45-3.91-4.45s-3.93,2.07-3.93,4.54Z"/><path class="u" d="M443.61,255.91v-12.14h2.79l3.5,5.22c.92,1.42,1.66,2.77,2.28,4.14l.05-.02c-.18-1.63-.2-3.09-.2-4.84v-4.5h2.17v12.14h-2.47l-3.54-5.4c-.88-1.4-1.78-2.89-2.46-4.3l-.06,.02c.09,1.63,.11,3.2,.11,5.02v4.66h-2.17Z"/><path class="u" d="M460.89,243.93c1.13-.16,2.52-.27,4-.27,2.56,0,4.3,.52,5.55,1.53,1.24,.99,2,2.38,2,4.32,0,2.03-.77,3.63-1.99,4.73-1.36,1.18-3.52,1.79-6.15,1.79-1.5,0-2.58-.07-3.41-.17v-11.93Zm2.32,10.23c.36,.06,.93,.07,1.49,.07,3.4,.02,5.28-1.74,5.28-4.6,.02-2.65-1.78-4.18-4.94-4.18-.86,0-1.46,.08-1.83,.15v8.57Z"/><path class="u" d="M476.88,252.39l-1.16,3.52h-2.43l4.29-12.14h3.02l4.42,12.14h-2.55l-1.25-3.52h-4.34Zm3.92-1.73l-1.11-3.06c-.26-.74-.48-1.47-.68-2.12h-.04c-.19,.66-.38,1.4-.62,2.11l-1.07,3.07h3.51Z"/><path class="u" d="M487.84,245.67h-3.89v-1.9h10.15v1.9h-3.93v10.24h-2.32v-10.24Z"/><path class="u" d="M502.97,250.57h-5.14v3.46h5.73v1.88h-8.04v-12.14h7.76v1.88h-5.44v3.05h5.14v1.88Z"/></g><text class="s" transform="translate(259.72 280.89)"><tspan class="al" x="0" y="0">W</tspan><tspan class="w" x="13.01" y="0">ould be published on mo</tspan><tspan class="k" x="180.68" y="0">r</tspan><tspan x="185.75" y="0">e </tspan><tspan class="p" x="197.16" y="0">S</tspan><tspan x="205.15" y="0">o</tspan><tspan class="p" x="213.93" y="0">M</tspan><tspan x="226.89" y="0">e than one - in </tspan><tspan x="67.17" y="19.2">the a</tspan><tspan class="ae" x="100.47" y="19.2">f</tspan><tspan class="v" x="105.32" y="19.2">t</tspan><tspan x="110.52" y="19.2">e</tspan><tspan class="aj" x="118.53" y="19.2">r</tspan><tspan x="123.83" y="19.2">noon, a</tspan><tspan class="k" x="173.57" y="19.2">r</tspan><tspan class="w" x="178.64" y="19.2">ound 10-11</tspan></text><text class="s" transform="translate(43.49 62.11)"><tspan class="ah" x="0" y="0">C</tspan><tspan class="ai" x="9.23" y="0">r</tspan><tspan x="14.3" y="0">e</tspan><tspan class="ac" x="22.32" y="0">a</tspan><tspan class="v" x="29.97" y="0">t</tspan><tspan x="35.17" y="0">e i</tspan><tspan class="ac" x="50.32" y="0">n</tspan><tspan class="v" x="59.13" y="0">t</tspan><tspan x="64.33" y="0">e</tspan><tspan class="ai" x="72.35" y="0">r</tspan><tspan x="77.42" y="0">est - p</tspan><tspan class="ai" x="117.87" y="0">r</tspan><tspan x="122.94" y="0">ese</tspan><tspan class="ac" x="145.31" y="0">n</tspan><tspan x="154.12" y="0">t DK in gene</tspan><tspan class="o" x="235.4" y="0">r</tspan><tspan x="240.55" y="0">a</tspan><tspan class="ai" x="248.26" y="0">l</tspan><tspan x="251.88" y="0">, benefits and </tspan><tspan x="0" y="19.2">possibili</tspan><tspan class="v" x="54.67" y="19.2">t</tspan><tspan x="59.87" y="19.2">es </tspan><tspan class="ab" x="77.62" y="19.2">f</tspan><tspan x="82.08" y="19.2">or our ta</tspan><tspan class="n" x="138.72" y="19.2">r</tspan><tspan x="143.82" y="19.2">get </tspan><tspan class="v" x="169.47" y="19.2">g</tspan><tspan class="ai" x="178.32" y="19.2">r</tspan><tspan x="183.39" y="19.2">oup</tspan><tspan class="g" x="0" y="57.6">T</tspan><tspan class="aa" x="7.84" y="57.6">h</tspan><tspan class="ai" x="16.72" y="57.6">r</tspan><tspan x="21.79" y="57.6">oughout </tspan><tspan class="v" x="83.5" y="57.6">c</tspan><tspan class="w" x="90.58" y="57.6">o</tspan><tspan class="ac" x="99.36" y="57.6">n</tspan><tspan class="v" x="108.18" y="57.6">t</tspan><tspan x="113.38" y="57.6">e</tspan><tspan class="m" x="121.39" y="57.6">n</tspan><tspan x="130.21" y="57.6">t let them </tspan><tspan class="l" x="198.3" y="57.6">k</tspan><tspan x="206.08" y="57.6">n</tspan><tspan class="g" x="214.96" y="57.6">o</tspan><tspan x="223.63" y="57.6">w</tspan><tspan class="i" x="235.4" y="57.6"> </tspan><tspan class="w" x="238.22" y="57.6">WHEN is the </tspan><tspan x="0" y="76.8">applic</tspan><tspan class="ac" x="40.61" y="76.8">a</tspan><tspan class="w" x="48.26" y="76.8">tion d</tspan><tspan class="ac" x="87.38" y="76.8">a</tspan><tspan class="v" x="95.02" y="76.8">t</tspan><tspan x="100.22" y="76.8">e</tspan></text><text class="s" transform="translate(450.27 61.4)"><tspan class="ah" x="0" y="0">C</tspan><tspan class="ai" x="9.23" y="0">r</tspan><tspan x="14.3" y="0">e</tspan><tspan class="ac" x="22.32" y="0">a</tspan><tspan class="v" x="29.97" y="0">t</tspan><tspan x="35.17" y="0">e i</tspan><tspan class="f" x="50.32" y="0">n</tspan><tspan class="ai" x="58.99" y="0">v</tspan><tspan x="66.53" y="0">olvme</tspan><tspan class="m" x="108.14" y="0">n</tspan><tspan class="aa" x="116.96" y="0">t/pa</tspan><tspan class="r" x="144.56" y="0">r</tspan><tspan class="aa" x="150.17" y="0">ticip</tspan><tspan class="m" x="179.23" y="0">a</tspan><tspan x="186.88" y="0">tion - let them </tspan><tspan class="ak" x="0" y="19.2">k</tspan><tspan class="aa" x="7.78" y="19.2">n</tspan><tspan class="g" x="16.66" y="19.2">o</tspan><tspan x="25.33" y="19.2">w wh</tspan><tspan class="m" x="61.15" y="19.2">a</tspan><tspan class="aa" x="68.8" y="19.2">t do they need </tspan><tspan class="af" x="169.13" y="19.2">t</tspan><tspan x="174.33" y="19.2">o do in detai</tspan><tspan class="ai" x="257.51" y="19.2">l</tspan><tspan class="aa" x="261.13" y="19.2">, </tspan><tspan x="0" y="38.4">include </tspan><tspan class="ah" x="52.82" y="38.4">e</tspan><tspan class="b" x="60.78" y="38.4">x</tspan><tspan class="v" x="68.4" y="38.4">t</tspan><tspan x="73.6" y="38.4">e</tspan><tspan class="aj" x="81.62" y="38.4">r</tspan><tspan x="86.91" y="38.4">nal links </tspan><tspan class="ab" x="144.3" y="38.4">f</tspan><tspan x="148.77" y="38.4">or </tspan><tspan class="ah" x="166.17" y="38.4">e</tspan><tspan class="b" x="174.14" y="38.4">x</tspan><tspan x="181.76" y="38.4">t</tspan><tspan class="o" x="187.05" y="38.4">r</tspan><tspan x="192.21" y="38.4">a in</tspan><tspan class="ab" x="215.93" y="38.4">f</tspan><tspan class="aa" x="220.4" y="38.4">o</tspan><tspan class="aj" x="229.18" y="38.4">r</tspan><tspan x="234.48" y="38.4">m</tspan><tspan class="m" x="247.82" y="38.4">a</tspan><tspan class="aa" x="255.47" y="38.4">tion, </tspan><tspan x="0" y="57.6">include chec</tspan><tspan class="ak" x="84.05" y="57.6">k</tspan><tspan x="91.82" y="57.6">list and </tspan><tspan class="ab" x="143.37" y="57.6">f</tspan><tspan x="147.84" y="57.6">eedback f</tspan><tspan class="ai" x="212.44" y="57.6">r</tspan><tspan x="217.52" y="57.6">om others</tspan></text><polyline class="c" points="779.75 147.08 798.4 162.06 43.49 162.06"/><line class="e" x1="780.43" y1="178.06" x2="798.4" y2="162.06"/><text class="t" transform="translate(52.21 177.44)"><tspan x="0" y="0">2 </tspan><tspan class="y" x="8.7" y="0">w</tspan><tspan x="17.41" y="0">eeks be</tspan><tspan class="ag" x="55.2" y="0">f</tspan><tspan x="58.55" y="0">o</tspan><tspan class="y" x="65.13" y="0">r</tspan><tspan x="68.94" y="0">e ap</tspan><tspan class="x" x="90.11" y="0">p</tspan><tspan class="q" x="96.65" y="0">. d</tspan><tspan class="j" x="108.44" y="0">a</tspan><tspan class="h" x="114.18" y="0">t</tspan><tspan x="118.08" y="0">e</tspan></text><text class="t" transform="translate(639.81 177.44)"><tspan x="0" y="0">2 </tspan><tspan class="y" x="8.7" y="0">w</tspan><tspan x="17.41" y="0">eeks a</tspan><tspan class="ae" x="48.14" y="0">f</tspan><tspan class="a`" x="51.78" y="0">t</tspan><tspan x="55.68" y="0">er ap</tspan><tspan class="x" x="80.77" y="0">p</tspan><tspan x="87.31" y="0">. d</tspan><tspan class="j" x="99.11" y="0">a</tspan><tspan class="h" x="104.84" y="0">t</tspan><tspan x="108.74" y="0">e</tspan></text></svg>