<svg class="header-logo-image-desktop" id="INTLogoDesktop" xmlns="http://www.w3.org/2000/svg" viewBox="0 0 228.59 48.69">
                                <path class="cls-1" d="M155.78,21.46l.8,2.3h1.21l-2.9-8.33h-1.41l-2.8,8.33h1.13l.74-2.3Zm-1.61-5h0Zm0,.15,1.31,3.86h-2.57Z"></path>
                                <path class="cls-1" d="M147.3,21.46l.79,2.3h1.21l-2.9-8.33H145l-2.8,8.33h1.13l.74-2.3Zm-1.61-5h0Zm-.05.15L147,20.45h-2.57Z"></path>
                                <path class="cls-1" d="M191.72,19.29l-1.85-.54c-.56-.17-.93-.26-.92-.71v-.67a.82.82,0,0,1,.89-.87h3.39v-.64c0-.32-.32-.37-.72-.37h-2.6a2,2,0,0,0-1.58.61,1.83,1.83,0,0,0-.5,1.27v.81c0,1,.59,1.36,1.75,1.65l1.92.55c.57.17.84.29.84.76v.35a1.12,1.12,0,0,1-1.14,1.25h-3.38v.65c0,.26.23.36.48.36h2.9a2.33,2.33,0,0,0,1.63-.51,2.25,2.25,0,0,0,.64-1.71V21C193.48,19.92,192.77,19.59,191.72,19.29Z"></path>
                                <path class="cls-1" d="M183.69,21.38c0,.91-.4,1.46-1.29,1.47h-1.34c-.89,0-1.28-.56-1.29-1.47V15.49h-1.16v5.93a2.46,2.46,0,0,0,.68,1.88,2.61,2.61,0,0,0,1.81.6h1.24a2.49,2.49,0,0,0,1.82-.63,2.55,2.55,0,0,0,.66-1.89V15.49h-1.13Z"></path>
                                <polygon class="cls-1" points="174.15 18.9 170.08 18.9 170.08 15.49 168.92 15.49 168.92 23.76 170.08 23.76 170.08 19.91 174.15 19.91 174.15 23.76 175.31 23.76 175.31 15.49 174.15 15.49 174.15 18.9"></polygon>
                                <path class="cls-1" d="M164,20.45a1.69,1.69,0,0,0,1.84-1.8V17.33a1.77,1.77,0,0,0-.5-1.39,2.26,2.26,0,0,0-1.55-.45H160v8.27h1.16V20.45h1.39l2.24,3.31h1.38l-2.28-3.31Zm-2.82-1v-3h2.28c1,0,1.21.12,1.23.9v1.06c0,.83-.19,1-1.12,1Z"></path>
                                <path class="cls-2" fill="#57b6ca" d="M189,36.76a2.39,2.39,0,1,0,2.39,2.39A2.39,2.39,0,0,0,189,36.76Z"></path>
                                <path class="cls-2" fill="#57b6ca" d="M199.07,24.76a5.37,5.37,0,1,0,5.37,5.37A5.37,5.37,0,0,0,199.07,24.76Z"></path>
                                <path class="cls-2" fill="#57b6ca" d="M214.44,7.34a8.81,8.81,0,1,0,8.81,8.8A8.8,8.8,0,0,0,214.44,7.34Z"></path>
                                <path class="cls-1" d="M79,15.29l-2.8,8.33h1.13l.74-2.29h3.23l.8,2.29h1.21l-2.9-8.33Zm.69,1h0Zm-1.3,4,1.26-3.87L81,20.32Z"></path>
                                <path class="cls-1" d="M97.9,21.33l.8,2.29h1.21L97,15.29H95.6l-2.8,8.33h1.13l.74-2.29Zm-1.61-5h0Zm0,.15,1.3,3.87H95Z"></path>
                                <polygon class="cls-1" points="116.87 22.62 112.58 22.62 112.58 19.78 115.96 19.78 115.96 18.76 112.58 18.76 112.58 16.37 116.87 16.37 116.87 15.36 111.42 15.36 111.42 23.63 116.87 23.63 116.87 22.62"></polygon>
                                <polygon class="cls-1" points="53.88 22.62 49.59 22.62 49.59 19.78 52.97 19.78 52.97 18.76 49.59 18.76 49.59 16.37 53.88 16.37 53.88 15.36 48.43 15.36 48.43 23.63 53.88 23.63 53.88 22.62"></polygon>
                                <polygon class="cls-1" points="124.1 22.09 126.14 16.68 126.23 17.6 126.81 23.63 127.9 23.63 127.08 15.37 125.5 15.36 123.59 20.51 121.69 15.36 120.1 15.37 119.29 23.63 120.38 23.63 120.96 17.6 121.05 16.68 123.09 22.09 124.1 22.09"></polygon>
                                <path class="cls-1" d="M107.61,23a2.77,2.77,0,0,0,.69-2.09V18a2.71,2.71,0,0,0-.68-2,2.71,2.71,0,0,0-1.92-.62h-3.46v8.26h3.44A2.69,2.69,0,0,0,107.61,23Zm-4.21-.38V16.36h2.2c1.1,0,1.52.49,1.54,1.75v2.77c0,1.29-.37,1.72-1.53,1.75Z"></path>
                                <path class="cls-1" d="M68.87,19.17,67,18.62c-.55-.17-.93-.25-.92-.71v-.67a.83.83,0,0,1,.89-.87h3.39v-.64c0-.31-.32-.37-.72-.37H67.06a2,2,0,0,0-1.59.61,1.84,1.84,0,0,0-.5,1.27v.81c0,1.05.59,1.37,1.75,1.65l1.92.56c.57.16.85.29.85.75v.35a1.12,1.12,0,0,1-1.15,1.26H65v.64c0,.27.23.36.49.36h2.9a2,2,0,0,0,2.26-2.22v-.54C70.63,19.79,69.91,19.46,68.87,19.17Z"></path>
                                <path class="cls-1" d="M60.54,19.17l-1.85-.55c-.56-.17-.94-.25-.93-.71v-.67a.83.83,0,0,1,.89-.87H62v-.64c0-.31-.32-.37-.71-.37h-2.6a2,2,0,0,0-1.59.61,1.88,1.88,0,0,0-.49,1.27v.81c0,1.05.58,1.37,1.74,1.65l1.92.56c.57.16.85.29.85.75v.35A1.12,1.12,0,0,1,60,22.62H56.64v.64c0,.27.22.36.48.36H60a2,2,0,0,0,2.27-2.22v-.54C62.3,19.79,61.58,19.46,60.54,19.17Z"></path>
                                <path class="cls-1" d="M29.76,19.17l-1.85-.55c-.56-.17-.93-.25-.92-.71v-.67a.83.83,0,0,1,.89-.87h3.39v-.64c0-.31-.32-.37-.72-.37H28a2,2,0,0,0-1.59.61,1.84,1.84,0,0,0-.5,1.27v.81c0,1.05.59,1.37,1.75,1.65l1.92.56c.57.16.84.29.84.75v.35a1.12,1.12,0,0,1-1.14,1.26H25.86v.64c0,.27.23.36.48.36h2.91a2.32,2.32,0,0,0,1.62-.5,2.27,2.27,0,0,0,.64-1.72v-.54C31.53,19.79,30.81,19.46,29.76,19.17Z"></path>
                                <path class="cls-1" d="M86.35,17.64a1.12,1.12,0,0,1,1.15-1.26h3.38v-.64c0-.27-.23-.36-.49-.36h-2.9a2.28,2.28,0,0,0-1.62.5,2.27,2.27,0,0,0-.65,1.72v3.8a2,2,0,0,0,2.27,2.22h2.9c.26,0,.49-.09.49-.36v-.64H87.5a1.12,1.12,0,0,1-1.15-1.26Z"></path>
                                <path class="cls-1" d="M21.87,21.25c0,.91-.41,1.46-1.29,1.47H19.24c-.89,0-1.28-.56-1.29-1.47V15.36H16.78v5.93a2.47,2.47,0,0,0,.69,1.88,2.6,2.6,0,0,0,1.8.6h1.25a2.51,2.51,0,0,0,1.82-.63A2.55,2.55,0,0,0,23,21.25V15.36H21.87Z"></path>
                                <polygon class="cls-1" points="134.97 15.35 132.9 18.96 130.84 15.35 129.55 15.35 132.25 20 132.25 23.63 133.43 23.63 133.43 20 136.18 15.35 134.97 15.35"></polygon>
                                <path class="cls-1" d="M12.93,19.35a1.19,1.19,0,0,0,.63-.51,2.15,2.15,0,0,0,.26-1.19V17a1.69,1.69,0,0,0-.43-1.14A1.76,1.76,0,0,0,12,15.35h-4v8.28H11.9a2.23,2.23,0,0,0,1.43-.43,1.89,1.89,0,0,0,.6-1.53v-.86A1.44,1.44,0,0,0,12.93,19.35Zm-3.7-3h2.53a1,1,0,0,1,.75.24,1,1,0,0,1,.22.73v.52a1.15,1.15,0,0,1-.25.84.91.91,0,0,1-.69.21H9.23Zm3.56,5.24a1.29,1.29,0,0,1-.21.85,1,1,0,0,1-.72.21H9.23V19.93h2.56a1.11,1.11,0,0,1,.77.21,1,1,0,0,1,.23.78Z"></path>
                                <polygon class="cls-1" points="43.86 21.62 40.11 15.35 38.92 15.35 38.92 23.63 39.95 23.63 39.95 17.16 43.87 23.63 44.89 23.63 44.89 15.35 43.86 15.35 43.86 21.62"></polygon>
                                <rect class="cls-1" x="34.57" y="15.35" width="1.16" height="8.27"></rect>
                            </svg>