<?xml version="1.0" encoding="UTF-8"?><svg id="a" xmlns="http://www.w3.org/2000/svg" viewBox="0 0 841.89 595.28"><defs><style>.b{letter-spacing:0em;}.c,.d{font-family:MyriadPro-Regular, Myriad Pro;}.e{letter-spacing:-.01em;}.f{letter-spacing:0em;}.g{letter-spacing:-.05em;}.h{letter-spacing:-.02em;}.i,.j,.k,.l{fill:#42878e;}.i,.m,.k,.n,.o{font-family:ProductSans-Regular, Product Sans;}.i,.l{font-size:14px;}.p{letter-spacing:0em;}.j{stroke:#daf0f3;stroke-width:.5px;}.j,.q{stroke-miterlimit:10;}.r{letter-spacing:0em;}.m,.s{letter-spacing:-.02em;}.t{letter-spacing:.01em;}.u{fill:#daf0f3;}.v{letter-spacing:0em;}.w{letter-spacing:-.03em;}.x{letter-spacing:0em;}.k{font-size:20.55px;}.q{fill:none;stroke:#abcdd3;stroke-width:2px;}.y{letter-spacing:-.03em;}.a`{letter-spacing:0em;}.aa{letter-spacing:0em;}.ab{letter-spacing:-.02em;}.ac{letter-spacing:0em;}.ad{letter-spacing:0em;}.ae{letter-spacing:-.03em;}.af{letter-spacing:0em;}.ag{letter-spacing:-.03em;}.ah{letter-spacing:0em;}.ai{letter-spacing:-.02em;}.aj{letter-spacing:-.02em;}.ak{letter-spacing:-.03em;}.al{letter-spacing:0em;}.am{letter-spacing:0em;}.an{letter-spacing:-.04em;}.ao{font-size:14.62px;}.ao,.ap,.aq{fill:#446167;font-family:ProductSans-Bold, Product Sans;}.ap{font-size:27.84px;}.ar{fill:#abcdd3;}.as{letter-spacing:0em;}.aq{font-size:14.62px;}.o,.d,.at{letter-spacing:-.01em;}.au{letter-spacing:-.01em;}.av{letter-spacing:-.01em;}.aw{letter-spacing:-.02em;}.ax{letter-spacing:0em;}.ay{letter-spacing:0em;}.b`{letter-spacing:-.02em;}.ba{letter-spacing:0em;}.bb{letter-spacing:-.03em;}</style></defs><rect class="ar" x="26.68" y="112.25" width="788.53" height="420.77"/><rect class="u" x="37.76" y="123.12" width="766.37" height="399.04"/><rect class="ar" x="37.76" y="123.12" width="766.37" height="48.37"/><rect class="ar" x="300.49" y="45.92" width="240.92" height="51.71"/><line class="q" x1="37.76" y1="522.16" x2="804.13" y2="522.16"/><line class="q" x1="37.76" y1="434.49" x2="804.13" y2="434.49"/><line class="q" x1="37.76" y1="346.82" x2="804.13" y2="346.82"/><line class="q" x1="37.76" y1="259.16" x2="804.13" y2="259.16"/><line class="q" x1="37.76" y1="171.49" x2="804.13" y2="171.49"/><line class="q" x1="37.76" y1="123.12" x2="804.13" y2="123.12"/><line class="q" x1="229.35" y1="123.12" x2="229.35" y2="522.16"/><line class="q" x1="37.76" y1="125.12" x2="37.76" y2="524.16"/><line class="q" x1="420.94" y1="123.12" x2="420.94" y2="522.16"/><line class="q" x1="612.54" y1="123.12" x2="612.54" y2="522.16"/><line class="q" x1="804.13" y1="125.12" x2="804.13" y2="524.16"/><text class="ao" transform="translate(48.18 152.77)"><tspan class="ak" x="0" y="0">V</tspan><tspan class="ba" x="9.5" y="0">O</tspan><tspan class="a`" x="21.52" y="0">I</tspan><tspan class="v" x="25.46" y="0">CE</tspan><tspan class="aw" x="44.64" y="0"> </tspan><tspan class="v" x="47.56" y="0">CHAR</tspan><tspan class="aw" x="88.28" y="0">A</tspan><tspan x="98.46" y="0">CTERI</tspan><tspan class="av" x="139.31" y="0">S</tspan><tspan x="147.57" y="0">T</tspan><tspan class="a`" x="156.09" y="0">I</tspan><tspan x="160.02" y="0">C</tspan></text><text class="ap" transform="translate(316.72 84.82)"><tspan class="w" x="0" y="0">T</tspan><tspan class="as" x="15.39" y="0">ONE</tspan><tspan class="ab" x="74.49" y="0"> </tspan><tspan class="as" x="80.05" y="0">OF</tspan><tspan class="an" x="118.47" y="0"> </tspan><tspan class="ae" x="123.48" y="0">V</tspan><tspan class="af" x="141.57" y="0">O</tspan><tspan class="f" x="164.45" y="0">I</tspan><tspan class="am" x="171.94" y="0">CE</tspan></text><text class="aq" transform="translate(277.68 152.02)"><tspan x="0" y="0">DESCRIPT</tspan><tspan class="p" x="68.42" y="0">I</tspan><tspan x="72.35" y="0">ON</tspan></text><text class="aq" transform="translate(505.48 152.02)"><tspan x="0" y="0">DO</tspan></text><text class="aq" transform="translate(685.55 152.02)"><tspan x="0" y="0">DON’T</tspan></text><text class="k" transform="translate(83.27 221.86)"><tspan class="g" x="0" y="0">W</tspan><tspan x="17.82" y="0">e</tspan><tspan class="al" x="28.83" y="0">lc</tspan><tspan class="ah" x="43.54" y="0">o</tspan><tspan x="54.85" y="0">mi</tspan><tspan class="al" x="76.87" y="0">n</tspan><tspan x="87.91" y="0">g</tspan></text><text class="k" transform="translate(62.84 307.84)"><tspan class="h" x="0" y="0">C</tspan><tspan class="au" x="14.57" y="0">o</tspan><tspan x="25.87" y="0">mp</tspan><tspan class="x" x="55.13" y="0">a</tspan><tspan x="65.51" y="0">s</tspan><tspan class="al" x="74.86" y="0">si</tspan><tspan class="au" x="88.52" y="0">o</tspan><tspan class="al" x="99.83" y="0">n</tspan><tspan class="au" x="110.86" y="0">a</tspan><tspan class="ad" x="121.13" y="0">t</tspan><tspan x="128.31" y="0">e</tspan></text><text class="k" transform="translate(86.42 398.66)"><tspan class="h" x="0" y="0">C</tspan><tspan class="au" x="14.57" y="0">on</tspan><tspan class="al" x="36.8" y="0">fid</tspan><tspan class="aa" x="60.43" y="0">e</tspan><tspan class="ai" x="71.45" y="0">n</tspan><tspan x="82.07" y="0">t</tspan></text><text class="k" transform="translate(92.15 485.9)"><tspan x="0" y="0">I</tspan><tspan class="al" x="4.85" y="0">nsp</tspan><tspan x="36.78" y="0">iri</tspan><tspan class="al" x="53.28" y="0">n</tspan><tspan x="64.32" y="0">g</tspan></text><text class="i" transform="translate(238.6 280.08)"><tspan x="0" y="0">The </tspan><tspan class="b" x="25.73" y="0">acad</tspan><tspan x="55.1" y="0">e</tspan><tspan class="at" x="62.61" y="0">m</tspan><tspan x="74.4" y="0">y is </tspan><tspan class="b" x="0" y="16.8">c</tspan><tspan class="at" x="7.24" y="16.8">o</tspan><tspan x="14.94" y="16.8">mp</tspan><tspan class="b" x="34.87" y="16.8">asi</tspan><tspan class="ac" x="51.25" y="16.8">o</tspan><tspan class="b" x="58.95" y="16.8">n</tspan><tspan class="at" x="66.47" y="16.8">a</tspan><tspan class="b" x="73.47" y="16.8">t</tspan><tspan x="78.36" y="16.8">e ab</tspan><tspan class="b" x="104.15" y="16.8">o</tspan><tspan class="ay" x="111.92" y="16.8">u</tspan><tspan x="119.57" y="16.8">t </tspan><tspan class="ay" x="127.61" y="16.8">t</tspan><tspan x="132.63" y="16.8">heir </tspan><tspan class="b" x="0" y="33.6">s</tspan><tspan x="6.3" y="33.6">t</tspan><tspan class="b" x="11.26" y="33.6">ud</tspan><tspan x="26.77" y="33.6">e</tspan><tspan class="y" x="34.27" y="33.6">n</tspan><tspan class="t" x="41.51" y="33.6">t</tspan><tspan x="46.61" y="33.6">s and </tspan><tspan class="ay" x="81.93" y="33.6">t</tspan><tspan x="86.95" y="33.6">heir</tspan><tspan class="s" x="110.21" y="33.6"> </tspan><tspan class="at" x="113.01" y="33.6">f</tspan><tspan class="ay" x="118.02" y="33.6">u</tspan><tspan x="125.68" y="33.6">tu</tspan><tspan class="bb" x="138.22" y="33.6">r</tspan><tspan x="142.88" y="33.6">e </tspan><tspan x="0" y="50.4">s</tspan><tspan class="b" x="6.37" y="50.4">ucc</tspan><tspan class="ay" x="28.36" y="50.4">e</tspan><tspan x="35.94" y="50.4">ss</tspan></text><text class="i" transform="translate(238.6 371.54)"><tspan x="0" y="0">The </tspan><tspan class="b" x="25.73" y="0">u</tspan><tspan class="ay" x="33.25" y="0">s</tspan><tspan x="39.69" y="0">er is </tspan><tspan class="bb" x="67.88" y="0">r</tspan><tspan class="ay" x="72.55" y="0">e</tspan><tspan class="b" x="80.12" y="0">a</tspan><tspan x="87.19" y="0">dy </tspan><tspan class="b" x="105.3" y="0">t</tspan><tspan x="110.19" y="0">o </tspan><tspan class="b" x="121.11" y="0">m</tspan><tspan x="132.97" y="0">a</tspan><tspan class="e" x="140.11" y="0">k</tspan><tspan x="146.66" y="0">e </tspan><tspan class="b" x="0" y="16.8">bi</tspan><tspan x="11" y="16.8">g-li</tspan><tspan class="bb" x="31.05" y="16.8">f</tspan><tspan x="35.78" y="16.8">e </tspan><tspan class="b" x="46.37" y="16.8">d</tspan><tspan class="ay" x="54.36" y="16.8">e</tspan><tspan x="61.93" y="16.8">ci</tspan><tspan class="b" x="72.32" y="16.8">si</tspan><tspan class="at" x="81.63" y="16.8">o</tspan><tspan class="b" x="89.33" y="16.8">n</tspan><tspan x="96.85" y="16.8">s and </tspan><tspan class="at" x="132.17" y="16.8">B</tspan><tspan x="140.35" y="16.8">AAA </tspan><tspan x="0" y="33.6">is </tspan><tspan class="ay" x="12.53" y="33.6">t</tspan><tspan x="17.55" y="33.6">he</tspan><tspan class="bb" x="32.65" y="33.6">r</tspan><tspan x="37.31" y="33.6">e </tspan><tspan class="b" x="47.89" y="33.6">t</tspan><tspan x="52.78" y="33.6">o help </tspan><tspan class="ay" x="92.73" y="33.6">t</tspan><tspan x="97.76" y="33.6">hem </tspan><tspan class="b" x="127.86" y="33.6">o</tspan><tspan class="ay" x="135.63" y="33.6">u</tspan><tspan x="143.29" y="33.6">t</tspan></text><text class="i" transform="translate(238.93 463.01)"><tspan class="at" x="0" y="0">B</tspan><tspan x="8.18" y="0">AAA </tspan><tspan class="ac" x="39.31" y="0">w</tspan><tspan x="49.73" y="0">a</tspan><tspan class="y" x="56.87" y="0">n</tspan><tspan class="t" x="64.11" y="0">t</tspan><tspan x="69.2" y="0">s </tspan><tspan class="b" x="78.65" y="0">t</tspan><tspan x="83.54" y="0">o i</tspan><tspan class="b" x="97.54" y="0">nsp</tspan><tspan x="119.29" y="0">i</tspan><tspan class="ag" x="122.37" y="0">r</tspan><tspan x="127.03" y="0">e </tspan><tspan class="b" x="0" y="16.8">s</tspan><tspan x="6.3" y="16.8">t</tspan><tspan class="b" x="11.26" y="16.8">ud</tspan><tspan x="26.77" y="16.8">e</tspan><tspan class="y" x="34.27" y="16.8">n</tspan><tspan x="41.51" y="16.8">t </tspan><tspan class="b" x="49.55" y="16.8">t</tspan><tspan x="54.43" y="16.8">o </tspan><tspan class="b" x="65.35" y="16.8">p</tspan><tspan x="73.29" y="16.8">u</tspan><tspan class="s" x="80.88" y="16.8">r</tspan><tspan x="85.68" y="16.8">s</tspan><tspan class="b" x="92.05" y="16.8">u</tspan><tspan x="99.57" y="16.8">e </tspan><tspan class="ay" x="110.15" y="16.8">t</tspan><tspan x="115.18" y="16.8">heir </tspan><tspan class="b" x="0" y="33.6">g</tspan><tspan x="7.99" y="33.6">oa</tspan><tspan class="b" x="22.97" y="33.6">l</tspan><tspan x="25.76" y="33.6">s</tspan></text><text class="i" transform="translate(238.6 210.91)"><tspan class="e" x="0" y="0">M</tspan><tspan x="11.41" y="0">a</tspan><tspan class="e" x="18.55" y="0">k</tspan><tspan x="25.1" y="0">e </tspan><tspan class="ay" x="35.69" y="0">t</tspan><tspan x="40.71" y="0">he n</tspan><tspan class="at" x="66.47" y="0">e</tspan><tspan x="73.83" y="0">w i</tspan><tspan class="aj" x="90.55" y="0">n</tspan><tspan class="b" x="97.79" y="0">t</tspan><tspan x="102.67" y="0">er</tspan><tspan class="b" x="115.26" y="0">n</tspan><tspan class="at" x="122.78" y="0">a</tspan><tspan class="ay" x="129.78" y="0">t</tspan><tspan class="b" x="134.8" y="0">i</tspan><tspan class="ac" x="137.81" y="0">o</tspan><tspan class="ax" x="145.51" y="0">n</tspan><tspan x="153.03" y="0">a</tspan><tspan class="b" x="160.17" y="0">l</tspan><tspan x="162.96" y="0">s </tspan><tspan class="bb" x="0" y="16.8">f</tspan><tspan class="ay" x="4.73" y="16.8">e</tspan><tspan x="12.31" y="16.8">el </tspan><tspan class="at" x="25.75" y="16.8">w</tspan><tspan x="36.16" y="16.8">e</tspan><tspan class="b" x="43.67" y="16.8">lc</tspan><tspan class="ac" x="53.69" y="16.8">o</tspan><tspan x="61.39" y="16.8">m</tspan><tspan class="ay" x="73.32" y="16.8">e</tspan><tspan x="80.89" y="16.8">d</tspan></text><text class="i" transform="translate(437.91 203.87)"><tspan class="at" x="0" y="0">w</tspan><tspan x="10.42" y="0">e</tspan><tspan class="b" x="17.92" y="0">lc</tspan><tspan class="ac" x="27.94" y="0">o</tspan><tspan x="35.64" y="0">mi</tspan><tspan class="b" x="50.65" y="0">n</tspan><tspan x="58.17" y="0">g </tspan><tspan class="ay" x="69.31" y="0">t</tspan><tspan class="b" x="74.34" y="0">i</tspan><tspan class="ay" x="77.35" y="0">t</tspan><tspan class="b" x="82.37" y="0">l</tspan><tspan x="85.16" y="0">e</tspan><tspan x="0" y="16.8">be p</tspan><tspan class="b" x="26.66" y="16.8">osi</tspan><tspan class="ay" x="43.73" y="16.8">t</tspan><tspan x="48.76" y="16.8">i</tspan><tspan class="e" x="51.84" y="16.8">v</tspan><tspan x="58.6" y="16.8">e and </tspan><tspan class="b" x="95.06" y="16.8">o</tspan><tspan class="s" x="102.83" y="16.8">p</tspan><tspan class="ay" x="110.56" y="16.8">t</tspan><tspan x="115.58" y="16.8">imi</tspan><tspan class="b" x="133.67" y="16.8">s</tspan><tspan class="ay" x="139.97" y="16.8">t</tspan><tspan class="b" x="144.99" y="16.8">i</tspan><tspan x="148" y="16.8">c</tspan><tspan x="0" y="33.6">sh</tspan><tspan class="at" x="13.96" y="33.6">o</tspan><tspan x="21.66" y="33.6">rt and s</tspan><tspan class="ac" x="67.25" y="33.6">w</tspan><tspan class="ay" x="77.67" y="33.6">e</tspan><tspan class="e" x="85.24" y="33.6">e</tspan><tspan x="92.54" y="33.6">t</tspan></text><text class="i" transform="translate(631.02 203.87)"><tspan x="0" y="0">be p</tspan><tspan class="b" x="26.66" y="0">a</tspan><tspan x="33.73" y="0">s</tspan><tspan class="b" x="40.1" y="0">s</tspan><tspan x="46.4" y="0">i</tspan><tspan class="e" x="49.47" y="0">v</tspan><tspan x="56.24" y="0">e</tspan><tspan x="0" y="16.8">be </tspan><tspan class="b" x="18.65" y="16.8">t</tspan><tspan x="23.53" y="16.8">oo </tspan><tspan class="b" x="42.29" y="16.8">l</tspan><tspan class="at" x="45.08" y="16.8">o</tspan><tspan class="b" x="52.78" y="16.8">n</tspan><tspan x="60.3" y="16.8">g</tspan></text><text class="i" transform="translate(631.02 293.12)"><tspan x="0" y="0">be </tspan><tspan class="b" x="18.65" y="0">t</tspan><tspan x="23.53" y="0">oo </tspan><tspan class="ay" x="42.29" y="0">s</tspan><tspan x="48.73" y="0">e</tspan><tspan class="b" x="56.24" y="0">nsi</tspan><tspan class="ay" x="73.06" y="0">t</tspan><tspan x="78.09" y="0">i</tspan><tspan class="e" x="81.17" y="0">v</tspan><tspan x="87.93" y="0">e</tspan><tspan class="b" x="0" y="16.8">lo</tspan><tspan class="ay" x="10.56" y="16.8">s</tspan><tspan x="17" y="16.8">e </tspan><tspan class="b" x="27.58" y="16.8">si</tspan><tspan x="36.89" y="16.8">g</tspan><tspan class="y" x="44.95" y="16.8">h</tspan><tspan x="52.19" y="16.8">t </tspan><tspan class="e" x="60.23" y="16.8">o</tspan><tspan x="67.86" y="16.8">f i</tspan><tspan class="b" x="79.17" y="16.8">nsp</tspan><tspan x="100.92" y="16.8">iri</tspan><tspan class="b" x="112.16" y="16.8">n</tspan><tspan x="119.68" y="16.8">g </tspan><tspan class="s" x="130.83" y="16.8">y</tspan><tspan class="b" x="137.52" y="16.8">o</tspan><tspan x="145.29" y="16.8">u</tspan><tspan class="b" x="152.88" y="16.8">n</tspan><tspan x="160.39" y="16.8">g </tspan><tspan x="0" y="33.6">i</tspan><tspan class="y" x="3.08" y="33.6">n</tspan><tspan class="b" x="10.32" y="33.6">t</tspan><tspan x="15.2" y="33.6">er</tspan><tspan class="b" x="27.79" y="33.6">n</tspan><tspan class="ac" x="35.31" y="33.6">a</tspan><tspan class="ay" x="42.31" y="33.6">t</tspan><tspan class="b" x="47.33" y="33.6">i</tspan><tspan class="at" x="50.34" y="33.6">o</tspan><tspan class="b" x="58.04" y="33.6">n</tspan><tspan x="65.56" y="33.6">a</tspan><tspan class="b" x="72.7" y="33.6">l</tspan><tspan x="75.49" y="33.6">s</tspan></text><text class="l" transform="translate(631.02 379.36)"><tspan class="n"><tspan x="0" y="0">be </tspan><tspan class="at" x="18.65" y="0">o</tspan><tspan class="e" x="26.35" y="0">v</tspan><tspan x="33.11" y="0">er e</tspan><tspan class="aj" x="56.28" y="0">n</tspan><tspan class="ay" x="63.52" y="0">t</tspan><tspan x="68.54" y="0">h</tspan><tspan class="b" x="76.13" y="0">usias</tspan><tspan class="ay" x="106.33" y="0">t</tspan><tspan class="ax" x="111.35" y="0">i</tspan><tspan x="114.36" y="0">c</tspan></tspan><tspan class="n"><tspan class="at" x="0" y="16.8">ex</tspan><tspan class="b" x="13.83" y="16.8">agg</tspan><tspan x="36.89" y="16.8">e</tspan><tspan class="s" x="44.39" y="16.8">r</tspan><tspan class="at" x="49.2" y="16.8">a</tspan><tspan class="b" x="56.2" y="16.8">t</tspan><tspan x="61.08" y="16.8">e</tspan></tspan><tspan class="n" x="0" y="33.6">be</tspan><tspan class="m" x="15.57" y="33.6"> </tspan><tspan class="o" x="18.37" y="33.6">f</tspan><tspan class="n" x="23.38" y="33.6">u</tspan><tspan class="c" x="30.97" y="33.6">ll of </tspan><tspan class="d" x="55.28" y="33.6">y</tspan><tspan class="c" x="61.74" y="33.6">ourself</tspan></text><text class="i" transform="translate(631.02 461.84)"><tspan x="0" y="0">be </tspan><tspan class="at" x="18.65" y="0">o</tspan><tspan class="e" x="26.35" y="0">v</tspan><tspan x="33.11" y="0">er e</tspan><tspan class="aj" x="56.28" y="0">n</tspan><tspan class="ay" x="63.52" y="0">t</tspan><tspan x="68.54" y="0">h</tspan><tspan class="b" x="76.13" y="0">usias</tspan><tspan class="ay" x="106.33" y="0">t</tspan><tspan class="ax" x="111.35" y="0">i</tspan><tspan x="114.36" y="0">c</tspan><tspan x="0" y="16.8">be </tspan><tspan class="b" x="18.65" y="16.8">t</tspan><tspan x="23.53" y="16.8">oo </tspan><tspan class="bb" x="42.29" y="16.8">r</tspan><tspan class="ay" x="46.96" y="16.8">e</tspan><tspan x="54.53" y="16.8">ali</tspan><tspan class="b" x="67.6" y="16.8">s</tspan><tspan class="ay" x="73.9" y="16.8">t</tspan><tspan class="b" x="78.93" y="16.8">i</tspan><tspan x="81.94" y="16.8">c</tspan><tspan x="0" y="33.6">s</tspan><tspan class="b" x="6.37" y="33.6">ug</tspan><tspan x="21.88" y="33.6">a</tspan><tspan class="bb" x="29.02" y="33.6">r</tspan><tspan class="b" x="33.68" y="33.6">c</tspan><tspan x="40.92" y="33.6">o</tspan><tspan class="at" x="48.76" y="33.6">a</tspan><tspan x="55.76" y="33.6">t </tspan><tspan class="b" x="63.8" y="33.6">i</tspan><tspan x="66.81" y="33.6">t</tspan></text><text class="i" transform="translate(437.91 293.12)"><tspan x="0" y="0">un</tspan><tspan class="b" x="15.18" y="0">d</tspan><tspan x="23.17" y="0">e</tspan><tspan class="s" x="30.67" y="0">r</tspan><tspan class="b" x="35.48" y="0">s</tspan><tspan class="at" x="41.78" y="0">t</tspan><tspan x="46.59" y="0">andi</tspan><tspan class="b" x="72.46" y="0">n</tspan><tspan x="79.98" y="0">g</tspan><tspan class="b" x="0" y="16.8">o</tspan><tspan class="s" x="7.77" y="16.8">p</tspan><tspan class="ay" x="15.5" y="16.8">t</tspan><tspan x="20.52" y="16.8">imi</tspan><tspan class="b" x="38.61" y="16.8">s</tspan><tspan class="ay" x="44.91" y="16.8">t</tspan><tspan class="b" x="49.94" y="16.8">i</tspan><tspan x="52.95" y="16.8">c</tspan><tspan class="b" x="0" y="33.6">c</tspan><tspan x="7.24" y="33.6">ari</tspan><tspan class="b" x="22.54" y="33.6">n</tspan><tspan x="30.06" y="33.6">g</tspan></text><text class="i" transform="translate(437.91 371.54)"><tspan x="0" y="0">sh</tspan><tspan class="at" x="13.96" y="0">o</tspan><tspan x="21.66" y="0">w </tspan><tspan class="b" x="35.29" y="0">u</tspan><tspan class="ay" x="42.81" y="0">s</tspan><tspan x="49.25" y="0">e</tspan><tspan class="s" x="56.75" y="0">r</tspan><tspan x="61.56" y="0">s </tspan><tspan class="ay" x="71.01" y="0">t</tspan><tspan class="b" x="76.03" y="0">h</tspan><tspan class="ac" x="83.55" y="0">a</tspan><tspan x="90.55" y="0">t </tspan><tspan class="ay" x="98.59" y="0">t</tspan><tspan x="103.61" y="0">h</tspan><tspan class="at" x="111.2" y="0">e</tspan><tspan x="118.56" y="0">y </tspan><tspan class="b" x="128.61" y="0">mad</tspan><tspan x="155.54" y="0">e </tspan><tspan class="ay" x="0" y="16.8">t</tspan><tspan x="5.03" y="16.8">he r</tspan><tspan class="b" x="28.28" y="16.8">i</tspan><tspan x="31.29" y="16.8">g</tspan><tspan class="y" x="39.35" y="16.8">h</tspan><tspan x="46.59" y="16.8">t ch</tspan><tspan class="ac" x="69.52" y="16.8">o</tspan><tspan class="b" x="77.22" y="16.8">ic</tspan><tspan x="87.47" y="16.8">e</tspan><tspan x="0" y="33.6">be </tspan><tspan class="b" x="18.65" y="33.6">p</tspan><tspan class="bb" x="26.59" y="33.6">r</tspan><tspan class="e" x="31.25" y="33.6">o</tspan><tspan class="bb" x="38.88" y="33.6">f</tspan><tspan class="ay" x="43.61" y="33.6">e</tspan><tspan x="51.18" y="33.6">s</tspan><tspan class="b" x="57.55" y="33.6">si</tspan><tspan class="at" x="66.86" y="33.6">o</tspan><tspan class="b" x="74.56" y="33.6">n</tspan><tspan x="82.08" y="33.6">al, </tspan><tspan class="bb" x="98.4" y="33.6">r</tspan><tspan class="ay" x="103.07" y="33.6">e</tspan><tspan x="110.64" y="33.6">ali</tspan><tspan class="b" x="123.72" y="33.6">s</tspan><tspan class="ay" x="130.02" y="33.6">t</tspan><tspan class="b" x="135.04" y="33.6">i</tspan><tspan x="138.05" y="33.6">c</tspan><tspan class="e" x="0" y="50.4">k</tspan><tspan class="ay" x="6.55" y="50.4">e</tspan><tspan x="14.13" y="50.4">ep </tspan><tspan class="b" x="32.72" y="50.4">i</tspan><tspan x="35.73" y="50.4">t </tspan><tspan class="b" x="43.76" y="50.4">s</tspan><tspan x="50.06" y="50.4">im</tspan><tspan class="at" x="65.07" y="50.4">p</tspan><tspan class="b" x="72.94" y="50.4">l</tspan><tspan x="75.72" y="50.4">e </tspan></text><text class="i" transform="translate(437.91 463.01)"><tspan x="0" y="0">sh</tspan><tspan class="at" x="13.96" y="0">o</tspan><tspan x="21.66" y="0">w</tspan><tspan class="s" x="32.21" y="0"> </tspan><tspan class="ac" x="35.01" y="0">f</tspan><tspan class="ay" x="40.03" y="0">u</tspan><tspan x="47.68" y="0">tu</tspan><tspan class="bb" x="60.23" y="0">r</tspan><tspan x="64.89" y="0">e </tspan><tspan class="b" x="75.47" y="0">o</tspan><tspan class="b`" x="83.24" y="0">p</tspan><tspan class="r" x="90.97" y="0">t</tspan><tspan class="b" x="96" y="0">i</tspan><tspan class="at" x="99.01" y="0">o</tspan><tspan class="b" x="106.71" y="0">n</tspan><tspan x="114.22" y="0">s</tspan><tspan x="0" y="16.8">be </tspan><tspan class="b" x="18.65" y="16.8">o</tspan><tspan class="s" x="26.42" y="16.8">p</tspan><tspan class="ay" x="34.15" y="16.8">t</tspan><tspan x="39.17" y="16.8">imi</tspan><tspan class="b" x="57.26" y="16.8">s</tspan><tspan class="ay" x="63.56" y="16.8">t</tspan><tspan class="b" x="68.58" y="16.8">i</tspan><tspan x="71.59" y="16.8">c</tspan><tspan x="0" y="33.6">sh</tspan><tspan class="at" x="13.96" y="33.6">o</tspan><tspan x="21.66" y="33.6">w </tspan><tspan class="ay" x="35.29" y="33.6">t</tspan><tspan class="b" x="40.32" y="33.6">h</tspan><tspan class="ac" x="47.84" y="33.6">a</tspan><tspan x="54.84" y="33.6">t </tspan><tspan class="b" x="62.87" y="33.6">i</tspan><tspan x="65.88" y="33.6">t is p</tspan><tspan class="b" x="94.46" y="33.6">o</tspan><tspan x="102.23" y="33.6">s</tspan><tspan class="b" x="108.59" y="33.6">s</tspan><tspan x="114.89" y="33.6">i</tspan><tspan class="b" x="117.97" y="33.6">bl</tspan><tspan x="128.75" y="33.6">e</tspan></text><circle class="j" cx="431.11" cy="200.77" r="2.9"/><circle class="j" cx="621.78" cy="199.88" r="2.9"/><circle class="j" cx="621.78" cy="216.47" r="2.9"/><circle class="j" cx="621.78" cy="288.98" r="2.9"/><circle class="j" cx="621.78" cy="376.13" r="2.9"/><circle class="j" cx="621.78" cy="392.72" r="2.9"/><circle class="j" cx="621.78" cy="408.72" r="2.9"/><circle class="j" cx="621.78" cy="458.4" r="2.9"/><circle class="j" cx="621.78" cy="474.74" r="2.9"/><circle class="j" cx="621.78" cy="491.72" r="2.9"/><circle class="j" cx="621.78" cy="305.34" r="2.9"/><circle class="j" cx="431.11" cy="216.35" r="2.9"/><circle class="j" cx="431.11" cy="234.2" r="2.9"/><circle class="j" cx="431.11" cy="289.37" r="2.9"/><circle class="j" cx="431.11" cy="304.94" r="2.9"/><circle class="j" cx="431.11" cy="322.79" r="2.9"/><circle class="j" cx="431.11" cy="368.13" r="2.9"/><circle class="j" cx="431.11" cy="459.02" r="2.9"/><circle class="j" cx="431.11" cy="476.13" r="2.9"/><circle class="j" cx="431.11" cy="492.04" r="2.9"/><circle class="j" cx="431.11" cy="401.55" r="2.9"/><circle class="j" cx="431.11" cy="417.89" r="2.9"/></svg>